<svg width="1600" height="680" viewBox="0 0 1600 680" fill="none" xmlns="http://www.w3.org/2000/svg">
  <defs>
    <linearGradient id="bg" x1="80" y1="40" x2="1520" y2="640" gradientUnits="userSpaceOnUse">
      <stop stop-color="#0F172A"/>
      <stop offset="1" stop-color="#111827"/>
    </linearGradient>
    <linearGradient id="card" x1="0" y1="0" x2="1" y2="1">
      <stop stop-color="#172036"/>
      <stop offset="1" stop-color="#101827"/>
    </linearGradient>
    <linearGradient id="accent" x1="0" y1="0" x2="1" y2="1">
      <stop stop-color="#7DD3FC"/>
      <stop offset="1" stop-color="#60A5FA"/>
    </linearGradient>
    <filter id="shadow" x="-20%" y="-20%" width="140%" height="140%">
      <feDropShadow dx="0" dy="14" stdDeviation="18" flood-color="#020617" flood-opacity="0.34"/>
    </filter>
    <style>
      .title { font: 700 32px -apple-system, BlinkMacSystemFont, "Segoe UI", sans-serif; fill: #F8FAFC; }
      .sub { font: 500 16px -apple-system, BlinkMacSystemFont, "Segoe UI", sans-serif; fill: #94A3B8; }
      .step { font: 700 18px -apple-system, BlinkMacSystemFont, "Segoe UI", sans-serif; fill: #F8FAFC; }
      .meta { font: 500 13px -apple-system, BlinkMacSystemFont, "Segoe UI", sans-serif; fill: #94A3B8; }
      .code { font: 600 12px ui-monospace, SFMono-Regular, Menlo, monospace; fill: #BFDBFE; }
    </style>
  </defs>

  <rect width="1600" height="680" rx="32" fill="url(#bg)"/>
  <text x="72" y="82" class="title">Runtime Data Flow</text>
  <text x="72" y="112" class="sub">One loop, one state owner, one merge point.</text>

  <rect x="72" y="184" width="178" height="114" rx="24" fill="url(#card)" stroke="#27416A" filter="url(#shadow)"/>
  <rect x="96" y="208" width="40" height="40" rx="14" fill="url(#accent)"/>
  <text x="154" y="228" class="step">01 Load</text>
  <text x="96" y="262" class="meta">state snapshot</text>

  <rect x="286" y="184" width="178" height="114" rx="24" fill="url(#card)" stroke="#27416A" filter="url(#shadow)"/>
  <rect x="310" y="208" width="40" height="40" rx="14" fill="url(#accent)"/>
  <text x="368" y="228" class="step">02 Recall</text>
  <text x="310" y="262" class="meta">candidate nodes</text>

  <rect x="500" y="184" width="178" height="114" rx="24" fill="url(#card)" stroke="#27416A" filter="url(#shadow)"/>
  <rect x="524" y="208" width="40" height="40" rx="14" fill="url(#accent)"/>
  <text x="582" y="228" class="step">03 Decide</text>
  <text x="524" y="262" class="meta">AI next_node</text>

  <rect x="714" y="184" width="178" height="114" rx="24" fill="url(#card)" stroke="#27416A" filter="url(#shadow)"/>
  <rect x="738" y="208" width="40" height="40" rx="14" fill="url(#accent)"/>
  <text x="796" y="228" class="step">04 Admit</text>
  <text x="738" y="262" class="meta">rules + guards</text>

  <rect x="928" y="184" width="178" height="114" rx="24" fill="url(#card)" stroke="#27416A" filter="url(#shadow)"/>
  <rect x="952" y="208" width="40" height="40" rx="14" fill="url(#accent)"/>
  <text x="1010" y="228" class="step">05 Execute</text>
  <text x="952" y="262" class="meta">sandbox node</text>

  <rect x="1142" y="184" width="178" height="114" rx="24" fill="url(#card)" stroke="#27416A" filter="url(#shadow)"/>
  <rect x="1166" y="208" width="40" height="40" rx="14" fill="url(#accent)"/>
  <text x="1224" y="228" class="step">06 Merge</text>
  <text x="1166" y="262" class="meta">patch into state</text>

  <rect x="1356" y="184" width="178" height="114" rx="24" fill="url(#card)" stroke="#27416A" filter="url(#shadow)"/>
  <rect x="1380" y="208" width="40" height="40" rx="14" fill="url(#accent)"/>
  <text x="1438" y="228" class="step">07 Persist</text>
  <text x="1380" y="262" class="meta">step + snapshot</text>

  <path d="M250 240H286M464 240H500M678 240H714M892 240H928M1106 240H1142M1320 240H1356" stroke="#60A5FA" stroke-width="4" stroke-linecap="round"/>

  <circle cx="800" cy="450" r="68" fill="#172036" stroke="#315CAB" stroke-width="2"/>
  <text x="758" y="442" class="step">Guard</text>
  <text x="736" y="468" class="meta">loop / steps / timeout</text>

  <path d="M1444 298V364H800V382" stroke="#60A5FA" stroke-width="4" stroke-linecap="round" stroke-linejoin="round"/>
  <path d="M800 518V586H160V298" stroke="#60A5FA" stroke-width="4" stroke-linecap="round" stroke-linejoin="round" opacity="0.78"/>

  <rect x="562" y="574" width="476" height="70" rx="22" fill="#101827" stroke="#27416A"/>
  <text x="596" y="617" class="code">continue | terminate | fail | resume_from_snapshot</text>
</svg>
