<svg width="1600" height="520" viewBox="0 0 1600 520" fill="none" xmlns="http://www.w3.org/2000/svg">
  <defs>
    <linearGradient id="bg" x1="100" y1="40" x2="1500" y2="480" gradientUnits="userSpaceOnUse">
      <stop stop-color="#0F172A"/>
      <stop offset="1" stop-color="#111827"/>
    </linearGradient>
    <style>
      .title { font: 700 28px -apple-system, BlinkMacSystemFont, "Segoe UI", sans-serif; fill: #F8FAFC; }
      .sub { font: 500 15px -apple-system, BlinkMacSystemFont, "Segoe UI", sans-serif; fill: #94A3B8; }
      .axis { font: 500 12px -apple-system, BlinkMacSystemFont, "Segoe UI", sans-serif; fill: #64748B; }
      .tag { font: 600 12px ui-monospace, SFMono-Regular, Menlo, monospace; fill: #DDD6FE; }
    </style>
  </defs>
  <rect width="1600" height="520" rx="32" fill="url(#bg)"/>
  <text x="72" y="70" class="title">AI Decision Signal Trend</text>
  <text x="72" y="98" class="sub">How usable AI routing becomes as node metadata, state clarity, and guardrails improve.</text>
  <path d="M120 420H1500" stroke="#22304A" stroke-width="2"/>
  <path d="M120 340H1500" stroke="#1E293B" stroke-width="1.5"/>
  <path d="M120 260H1500" stroke="#1E293B" stroke-width="1.5"/>
  <path d="M120 180H1500" stroke="#1E293B" stroke-width="1.5"/>
  <text x="120" y="452" class="axis">raw prompt</text>
  <text x="420" y="452" class="axis">node metadata</text>
  <text x="740" y="452" class="axis">state snapshots</text>
  <text x="1060" y="452" class="axis">rejections fed back</text>
  <text x="1340" y="452" class="axis">stable routing</text>
  <path d="M120 402C248 390 322 354 420 316C534 270 638 222 740 188C850 154 956 136 1060 118C1164 100 1294 92 1500 86" stroke="#C084FC" stroke-width="5" stroke-linecap="round"/>
  <path d="M120 416C252 410 332 390 420 372C522 350 634 328 740 306C858 282 954 258 1060 236C1178 214 1312 198 1500 174" stroke="#F59E0B" stroke-width="5" stroke-linecap="round"/>
  <circle cx="1500" cy="86" r="6" fill="#C084FC"/>
  <circle cx="1500" cy="174" r="6" fill="#F59E0B"/>
  <text x="1282" y="120" class="tag">routing quality</text>
  <text x="1290" y="208" class="tag">reasoning observability</text>
</svg>
